<svg xmlns="http://www.w3.org/2000/svg" viewBox="0 0 480 320" role="img" aria-labelledby="title desc">
  <title id="title">Sport therapeutic massage</title>
  <desc id="desc">Neutral spa scene with towel, oil bottle and bamboo sticks.</desc>
  <defs>
    <linearGradient id="bg" x1="0" y1="0" x2="1" y2="1">
      <stop offset="0" stop-color="#f5ede4"/>
      <stop offset="1" stop-color="#e7d7c6"/>
    </linearGradient>
  </defs>
  <rect width="480" height="320" fill="url(#bg)"/>
  <rect x="30" y="180" width="420" height="90" rx="18" fill="#d6b899"/>
  <rect x="42" y="192" width="396" height="66" rx="14" fill="#f8f2ea"/>
  <rect x="66" y="206" width="168" height="38" rx="10" fill="#ffffff"/>
  <rect x="250" y="198" width="20" height="58" rx="8" fill="#8b6a4c"/>
  <rect x="278" y="198" width="20" height="58" rx="8" fill="#8b6a4c"/>
  <rect x="306" y="198" width="20" height="58" rx="8" fill="#8b6a4c"/>
  <rect x="344" y="198" width="44" height="52" rx="12" fill="#c08f5d"/>
  <rect x="356" y="184" width="20" height="16" rx="5" fill="#9e744a"/>
  <path d="M130 140c20-20 42-20 62 0" fill="none" stroke="#b07c52" stroke-width="7" stroke-linecap="round"/>
  <circle cx="106" cy="148" r="7" fill="#b07c52"/>
  <circle cx="182" cy="148" r="7" fill="#b07c52"/>
</svg>
